<svg width="161" height="32" viewBox="0 0 161 32" fill="none" xmlns="http://www.w3.org/2000/svg">
<path d="M14.9783 6.28331C15.4573 4.80921 17.5427 4.80921 18.0217 6.28331L19.733 11.5502C19.9472 12.2094 20.5615 12.6558 21.2547 12.6558H26.7926C28.3426 12.6558 28.987 14.6391 27.7331 15.5502L23.2528 18.8053C22.692 19.2127 22.4574 19.9349 22.6716 20.5941L24.3829 25.861C24.8618 27.3351 23.1747 28.5609 21.9207 27.6499L17.4404 24.3948C16.8797 23.9873 16.1203 23.9873 15.5595 24.3948L11.0793 27.6499C9.82532 28.5609 8.13815 27.3351 8.61711 25.861L10.3284 20.5941C10.5426 19.9349 10.308 19.2127 9.74719 18.8053L5.26692 15.5502C4.01298 14.6391 4.65742 12.6558 6.20738 12.6558H11.7453C12.4385 12.6558 13.0528 12.2094 13.267 11.5502L14.9783 6.28331Z" fill="#FF8A00"/>
<path d="M46.9783 6.28331C47.4573 4.80921 49.5427 4.80921 50.0217 6.28331L51.733 11.5502C51.9472 12.2094 52.5615 12.6558 53.2547 12.6558H58.7926C60.3426 12.6558 60.987 14.6391 59.7331 15.5502L55.2528 18.8053C54.692 19.2127 54.4574 19.9349 54.6716 20.5941L56.3829 25.861C56.8618 27.3351 55.1747 28.5609 53.9207 27.6499L49.4404 24.3948C48.8797 23.9873 48.1203 23.9873 47.5595 24.3948L43.0793 27.6499C41.8253 28.5609 40.1381 27.3351 40.6171 25.861L42.3284 20.5941C42.5426 19.9349 42.308 19.2127 41.7472 18.8053L37.2669 15.5502C36.013 14.6391 36.6574 12.6558 38.2074 12.6558H43.7453C44.4385 12.6558 45.0528 12.2094 45.267 11.5502L46.9783 6.28331Z" fill="#FF8A00"/>
<path d="M78.9783 6.28331C79.4573 4.80921 81.5427 4.80921 82.0217 6.28331L83.733 11.5502C83.9472 12.2094 84.5615 12.6558 85.2547 12.6558H90.7926C92.3426 12.6558 92.987 14.6391 91.7331 15.5502L87.2528 18.8053C86.692 19.2127 86.4574 19.9349 86.6716 20.5941L88.3829 25.861C88.8618 27.3351 87.1747 28.5609 85.9207 27.6499L81.4404 24.3948C80.8797 23.9873 80.1203 23.9873 79.5595 24.3948L75.0793 27.6499C73.8253 28.5609 72.1381 27.3351 72.6171 25.861L74.3284 20.5941C74.5426 19.9349 74.308 19.2127 73.7472 18.8053L69.2669 15.5502C68.013 14.6391 68.6574 12.6558 70.2074 12.6558H75.7453C76.4385 12.6558 77.0528 12.2094 77.267 11.5502L78.9783 6.28331Z" fill="#FF8A00"/>
<path d="M110.978 6.28331C111.457 4.80921 113.543 4.80921 114.022 6.28331L115.733 11.5502C115.947 12.2094 116.562 12.6558 117.255 12.6558H122.793C124.343 12.6558 124.987 14.6391 123.733 15.5502L119.253 18.8053C118.692 19.2127 118.457 19.9349 118.672 20.5941L120.383 25.861C120.862 27.3351 119.175 28.5609 117.921 27.6499L113.44 24.3948C112.88 23.9873 112.12 23.9873 111.56 24.3948L107.079 27.6499C105.825 28.5609 104.138 27.3351 104.617 25.861L106.328 20.5941C106.543 19.9349 106.308 19.2127 105.747 18.8053L101.267 15.5502C100.013 14.6391 100.657 12.6558 102.207 12.6558H107.745C108.438 12.6558 109.053 12.2094 109.267 11.5502L110.978 6.28331Z" fill="#FF8A00"/>
<path d="M142.978 6.28331C143.457 4.80921 145.543 4.80921 146.022 6.28331L147.733 11.5502C147.947 12.2094 148.562 12.6558 149.255 12.6558H154.793C156.343 12.6558 156.987 14.6391 155.733 15.5502L151.253 18.8053C150.692 19.2127 150.457 19.9349 150.672 20.5941L152.383 25.861C152.862 27.3351 151.175 28.5609 149.921 27.6499L145.44 24.3948C144.88 23.9873 144.12 23.9873 143.56 24.3948L139.079 27.6499C137.825 28.5609 136.138 27.3351 136.617 25.861L138.328 20.5941C138.543 19.9349 138.308 19.2127 137.747 18.8053L133.267 15.5502C132.013 14.6391 132.657 12.6558 134.207 12.6558H139.745C140.438 12.6558 141.053 12.2094 141.267 11.5502L142.978 6.28331Z" fill="#FF8A00"/>
</svg>
