<svg width="262" height="44" viewBox="0 0 262 44" fill="none" xmlns="http://www.w3.org/2000/svg">
<path fill-rule="evenodd" clip-rule="evenodd" d="M22.6191 34C29.2466 34 34.6191 28.6274 34.6191 22C34.6191 15.3726 29.2466 10 22.6191 10C15.9917 10 10.6191 15.3726 10.6191 22C10.6191 28.6274 15.9917 34 22.6191 34ZM27.8836 16L23.5489 21.0388H23.5486L28.2631 27.8998H24.7958L21.6211 23.2796L17.6464 27.8998H16.6191L21.165 22.6159L16.6191 16H20.0864L23.0926 20.3751L26.8564 16H27.8836ZM21.6813 22.0154L22.1419 22.6742V22.6744L25.2791 27.1617H26.8569L23.0124 21.6626L22.5518 21.0038L19.5943 16.7733H18.0165L21.6813 22.0154Z" fill="white"/>
<path d="M65.6191 22C65.6191 20.3438 65.3066 18.7891 64.6816 17.3359C64.0566 15.8672 63.2012 14.5898 62.1152 13.5039C61.0293 12.418 59.752 11.5625 58.2832 10.9375C56.8301 10.3125 55.2754 10 53.6191 10C51.9629 10 50.4082 10.3125 48.9551 10.9375C47.4863 11.5625 46.209 12.418 45.123 13.5039C44.0371 14.5898 43.1816 15.8672 42.5566 17.3359C41.9316 18.7891 41.6191 20.3438 41.6191 22C41.6191 23.6562 41.9316 25.2109 42.5566 26.6641C43.1816 28.1328 44.0371 29.4102 45.123 30.4961C46.209 31.582 47.4863 32.4375 48.9551 33.0625C50.4082 33.6875 51.9629 34 53.6191 34C53.6504 34 53.6855 34 53.7246 34C53.7637 34 53.7988 34 53.8301 34V24.6484H51.252V21.6484H53.8301V19.4453C53.8301 18.1641 54.1855 17.1836 54.8965 16.5039C55.6074 15.8242 56.5332 15.4844 57.6738 15.4844C58.2363 15.4844 58.7285 15.5 59.1504 15.5312C59.5723 15.5625 59.8535 15.5859 59.9941 15.6016V18.2734H58.4238C57.7988 18.2734 57.3926 18.4102 57.2051 18.6836C57.0176 18.957 56.9238 19.3047 56.9238 19.7266V21.6484H59.9004L59.5254 24.6484H56.9238V33.5312C58.1895 33.1719 59.3535 32.625 60.416 31.8906C61.4785 31.1562 62.3926 30.2852 63.1582 29.2773C63.9238 28.2695 64.5254 27.1484 64.9629 25.9141C65.4004 24.6797 65.6191 23.375 65.6191 22Z" fill="white"/>
<path d="M83.1327 24.2356L87.024 21.9879L83.1327 19.7402V24.2356ZM84.6071 10C82.9636 10 81.4087 10.3142 79.9424 10.9426C78.4923 11.571 77.2234 12.425 76.1358 13.5045C75.0481 14.5841 74.1901 15.857 73.5617 17.3233C72.9333 18.7734 72.6191 20.3283 72.6191 21.9879C72.6191 23.6475 72.9333 25.2024 73.5617 26.6526C74.1901 28.1188 75.0481 29.3958 76.1358 30.4834C77.2234 31.571 78.4923 32.429 79.9424 33.0574C81.4087 33.6858 82.9636 34 84.6071 34C86.2667 34 87.8296 33.6858 89.2959 33.0574C90.746 32.429 92.0149 31.571 93.1025 30.4834C94.1901 29.3958 95.0481 28.1188 95.6765 26.6526C96.3049 25.2024 96.6191 23.6475 96.6191 21.9879C96.6191 20.3283 96.3049 18.7734 95.6765 17.3233C95.0481 15.857 94.1901 14.5841 93.1025 13.5045C92.0149 12.425 90.746 11.571 89.2959 10.9426C87.8296 10.3142 86.2667 10 84.6071 10ZM92.1237 22.0121C92.1237 22.0121 92.1116 22.4632 92.0874 23.3656C92.0632 24.2679 91.9706 25.0171 91.8095 25.6133C91.7289 25.9355 91.5678 26.2135 91.3261 26.4471C91.0844 26.6808 90.8024 26.8459 90.4802 26.9426C90.1901 27.007 89.7229 27.0634 89.0784 27.1118C88.4338 27.1601 87.7813 27.1923 87.1207 27.2085C86.46 27.2246 85.88 27.2326 85.3805 27.2326C84.8649 27.2326 84.6071 27.2326 84.6071 27.2326C84.6071 27.2326 84.3573 27.2326 83.8578 27.2326C83.3583 27.2326 82.7823 27.2205 82.1297 27.1964C81.4771 27.1722 80.8206 27.144 80.1599 27.1118C79.5154 27.0634 79.0481 26.999 78.7581 26.9184C78.4359 26.8379 78.1539 26.6767 77.9122 26.435C77.6705 26.1934 77.5094 25.9114 77.4288 25.5891C77.2677 25.0091 77.175 24.2638 77.1509 23.3535C77.1267 22.4431 77.1146 21.9879 77.1146 21.9879C77.1146 21.9879 77.1267 21.5327 77.1509 20.6224C77.175 19.712 77.2677 18.9668 77.4288 18.3867C77.5094 18.0645 77.6705 17.7825 77.9122 17.5408C78.1539 17.2991 78.4359 17.138 78.7581 17.0574C79.0481 16.9768 79.5154 16.9124 80.1599 16.864C80.8044 16.8318 81.457 16.8036 82.1176 16.7795C82.7783 16.7553 83.3583 16.7432 83.8578 16.7432C84.3573 16.7432 84.6071 16.7432 84.6071 16.7432C84.6071 16.7432 84.8649 16.7432 85.3805 16.7432C85.88 16.7432 86.46 16.7553 87.1207 16.7795C87.7813 16.8036 88.4338 16.8318 89.0784 16.864C89.7229 16.9124 90.1901 16.9768 90.4802 17.0574C90.8024 17.1541 91.0844 17.3192 91.3261 17.5529C91.5678 17.7865 91.7289 18.0645 91.8095 18.3867C91.9706 18.9668 92.0632 19.716 92.0874 20.6344C92.1116 21.5529 92.1237 22.0121 92.1237 22.0121Z" fill="white"/>
<path d="M115.607 10C113.964 10 112.409 10.3142 110.942 10.9426C109.492 11.571 108.223 12.425 107.136 13.5045C106.048 14.5841 105.19 15.857 104.562 17.3233C103.933 18.7734 103.619 20.3283 103.619 21.9879C103.619 23.6475 103.933 25.2024 104.562 26.6526C105.19 28.1188 106.048 29.3958 107.136 30.4834C108.223 31.571 109.492 32.429 110.942 33.0574C112.409 33.6858 113.964 34 115.607 34C117.267 34 118.83 33.6858 120.296 33.0574C121.746 32.429 123.015 31.571 124.103 30.4834C125.19 29.3958 126.048 28.1188 126.677 26.6526C127.305 25.2024 127.619 23.6475 127.619 21.9879C127.619 20.3283 127.305 18.7734 126.677 17.3233C126.048 15.857 125.19 14.5841 124.103 13.5045C123.015 12.425 121.746 11.571 120.296 10.9426C118.83 10.3142 117.267 10 115.607 10ZM112.127 28.1269H109.202V19.3293H112.127V28.1269ZM110.677 18.145H110.652C110.169 18.145 109.778 17.996 109.48 17.6979C109.182 17.3998 109.033 17.0413 109.033 16.6224C109.033 16.1873 109.186 15.8248 109.492 15.5347C109.798 15.2447 110.201 15.0997 110.701 15.0997C111.2 15.0997 111.595 15.2447 111.885 15.5347C112.175 15.8248 112.32 16.1873 112.32 16.6224C112.32 17.0413 112.171 17.3998 111.873 17.6979C111.575 17.996 111.176 18.145 110.677 18.145ZM122.664 28.1269H119.74V23.4381C119.74 22.8419 119.627 22.3585 119.402 21.9879C119.176 21.6173 118.797 21.432 118.266 21.432C117.863 21.432 117.541 21.5448 117.299 21.7704C117.057 21.996 116.88 22.2377 116.767 22.4955C116.735 22.5921 116.711 22.7049 116.695 22.8338C116.679 22.9627 116.67 23.0916 116.67 23.2205V28.1269H113.746C113.746 28.1269 113.746 27.708 113.746 26.8701C113.762 26.0322 113.77 25.0896 113.77 24.0423C113.77 22.995 113.77 22.004 113.77 21.0695C113.77 20.1188 113.762 19.5388 113.746 19.3293H116.67V20.5861C116.864 20.28 117.158 19.9617 117.553 19.6314C117.947 19.3011 118.532 19.136 119.305 19.136C120.272 19.136 121.073 19.4582 121.71 20.1027C122.346 20.7472 122.664 21.7462 122.664 23.0997V28.1269Z" fill="white"/>
<path d="M148.927 21.9879C148.927 22.6163 148.702 23.1561 148.251 23.6073C147.799 24.0584 147.26 24.284 146.631 24.284C146.003 24.284 145.463 24.0584 145.012 23.6073C144.561 23.1561 144.335 22.6163 144.335 21.9879C144.335 21.3595 144.561 20.8197 145.012 20.3686C145.463 19.9174 146.003 19.6918 146.631 19.6918C147.26 19.6918 147.799 19.9174 148.251 20.3686C148.702 20.8197 148.927 21.3595 148.927 21.9879ZM151.997 17.9275C151.948 17.7825 151.88 17.6415 151.791 17.5045C151.703 17.3676 151.602 17.2427 151.489 17.1299C151.376 17.0171 151.252 16.9164 151.115 16.8278C150.978 16.7392 150.837 16.6707 150.692 16.6224C150.579 16.574 150.422 16.5257 150.22 16.4773C150.019 16.429 149.749 16.3968 149.411 16.3807C149.056 16.3646 148.734 16.3525 148.444 16.3444C148.154 16.3364 147.55 16.3323 146.631 16.3323C145.713 16.3323 145.109 16.3364 144.819 16.3444C144.529 16.3525 144.206 16.3646 143.852 16.3807C143.513 16.3968 143.244 16.429 143.042 16.4773C142.841 16.5257 142.684 16.574 142.571 16.6224C142.426 16.6707 142.285 16.7392 142.148 16.8278C142.011 16.9164 141.886 17.0171 141.773 17.1299C141.66 17.2427 141.56 17.3676 141.471 17.5045C141.382 17.6415 141.314 17.7825 141.266 17.9275C141.217 18.0403 141.169 18.1974 141.121 18.3988C141.072 18.6002 141.04 18.8701 141.024 19.2085C141.008 19.5629 140.996 19.8852 140.988 20.1752C140.98 20.4653 140.976 21.0695 140.976 21.9879C140.976 22.9063 140.98 23.5106 140.988 23.8006C140.996 24.0906 141.008 24.4129 141.024 24.7674C141.04 25.1057 141.072 25.3756 141.121 25.577C141.169 25.7784 141.217 25.9355 141.266 26.0483C141.314 26.2095 141.382 26.3545 141.471 26.4834C141.56 26.6123 141.66 26.7331 141.773 26.8459C141.886 26.9587 142.011 27.0594 142.148 27.148C142.285 27.2367 142.426 27.3051 142.571 27.3535C142.684 27.4018 142.841 27.4502 143.042 27.4985C143.244 27.5468 143.513 27.5791 143.852 27.5952C144.206 27.6113 144.529 27.6234 144.819 27.6314C145.109 27.6395 145.713 27.6435 146.631 27.6435C147.55 27.6435 148.154 27.6395 148.444 27.6314C148.734 27.6234 149.056 27.6113 149.411 27.5952C149.749 27.5791 150.019 27.5468 150.22 27.4985C150.422 27.4502 150.579 27.4018 150.692 27.3535C150.998 27.2407 151.264 27.0715 151.489 26.8459C151.715 26.6203 151.884 26.3545 151.997 26.0483C152.045 25.9355 152.093 25.7784 152.142 25.577C152.19 25.3756 152.222 25.1057 152.238 24.7674C152.255 24.4129 152.267 24.0906 152.275 23.8006C152.283 23.5106 152.287 22.9063 152.287 21.9879C152.287 21.0695 152.283 20.4653 152.275 20.1752C152.267 19.8852 152.255 19.5629 152.238 19.2085C152.222 18.8701 152.19 18.6002 152.142 18.3988C152.093 18.1974 152.045 18.0403 151.997 17.9275ZM146.631 25.5166C145.648 25.5166 144.815 25.1742 144.13 24.4894C143.445 23.8046 143.103 22.9708 143.103 21.9879C143.103 21.005 143.445 20.1712 144.13 19.4864C144.815 18.8016 145.648 18.4592 146.631 18.4592C147.614 18.4592 148.448 18.8016 149.133 19.4864C149.818 20.1712 150.16 21.005 150.16 21.9879C150.16 22.9708 149.818 23.8046 149.133 24.4894C148.448 25.1742 147.614 25.5166 146.631 25.5166ZM150.305 19.136C150.079 19.136 149.886 19.0554 149.725 18.8943C149.564 18.7331 149.483 18.5398 149.483 18.3142C149.483 18.0886 149.564 17.8953 149.725 17.7341C149.886 17.573 150.079 17.4924 150.305 17.4924C150.531 17.4924 150.724 17.573 150.885 17.7341C151.046 17.8953 151.127 18.0886 151.127 18.3142C151.127 18.5398 151.046 18.7331 150.885 18.8943C150.724 19.0554 150.531 19.136 150.305 19.136ZM146.631 10C144.972 10 143.417 10.3142 141.967 10.9426C140.5 11.571 139.227 12.425 138.148 13.5045C137.068 14.5841 136.214 15.857 135.586 17.3233C134.941 18.7734 134.619 20.3283 134.619 21.9879C134.619 23.6475 134.941 25.2024 135.586 26.6526C136.214 28.1188 137.068 29.3958 138.148 30.4834C139.227 31.571 140.5 32.429 141.967 33.0574C143.417 33.6858 144.972 34 146.631 34C148.291 34 149.846 33.6858 151.296 33.0574C152.762 32.429 154.035 31.571 155.115 30.4834C156.194 29.3958 157.048 28.1188 157.677 26.6526C158.305 25.2024 158.619 23.6475 158.619 21.9879C158.619 20.3283 158.305 18.7734 157.677 17.3233C157.048 15.857 156.194 14.5841 155.115 13.5045C154.035 12.425 152.762 11.571 151.296 10.9426C149.846 10.3142 148.291 10 146.631 10ZM153.471 24.8399C153.455 25.1944 153.419 25.5045 153.362 25.7704C153.306 26.0363 153.237 26.282 153.157 26.5076C152.98 26.9748 152.714 27.3817 152.359 27.7281C152.005 28.0745 151.602 28.3364 151.151 28.5136C150.925 28.5942 150.68 28.6626 150.414 28.719C150.148 28.7754 149.838 28.8117 149.483 28.8278C149.113 28.86 148.778 28.8761 148.48 28.8761C148.182 28.8761 147.566 28.8761 146.631 28.8761C145.697 28.8761 145.08 28.8761 144.782 28.8761C144.484 28.8761 144.15 28.86 143.779 28.8278C143.425 28.8117 143.115 28.7754 142.849 28.719C142.583 28.6626 142.337 28.5942 142.112 28.5136C141.886 28.433 141.668 28.3243 141.459 28.1873C141.25 28.0504 141.064 27.8933 140.903 27.716C140.726 27.5549 140.569 27.3696 140.432 27.1601C140.295 26.9507 140.186 26.7331 140.106 26.5076C140.025 26.282 139.957 26.0363 139.9 25.7704C139.844 25.5045 139.807 25.1944 139.791 24.8399C139.775 24.4693 139.763 24.1349 139.755 23.8369C139.747 23.5388 139.743 22.9225 139.743 21.9879C139.743 21.0534 139.747 20.4371 139.755 20.139C139.763 19.8409 139.775 19.5146 139.791 19.1601C139.807 18.7895 139.844 18.4713 139.9 18.2054C139.957 17.9396 140.025 17.6939 140.106 17.4683C140.186 17.2427 140.295 17.0292 140.432 16.8278C140.569 16.6264 140.726 16.4371 140.903 16.2598C141.064 16.0826 141.25 15.9255 141.459 15.7885C141.668 15.6516 141.886 15.5428 142.112 15.4622C142.337 15.3817 142.583 15.3132 142.849 15.2568C143.115 15.2004 143.425 15.1641 143.779 15.148C144.15 15.1319 144.484 15.1198 144.782 15.1118C145.08 15.1037 145.697 15.0997 146.631 15.0997C147.566 15.0997 148.182 15.1037 148.48 15.1118C148.778 15.1198 149.113 15.1319 149.483 15.148C149.838 15.1641 150.148 15.2004 150.414 15.2568C150.68 15.3132 150.925 15.3817 151.151 15.4622C151.376 15.5428 151.594 15.6516 151.803 15.7885C152.013 15.9255 152.198 16.0826 152.359 16.2598C152.537 16.4371 152.694 16.6264 152.831 16.8278C152.968 17.0292 153.076 17.2427 153.157 17.4683C153.237 17.6939 153.306 17.9396 153.362 18.2054C153.419 18.4713 153.455 18.7895 153.471 19.1601C153.487 19.5146 153.499 19.8409 153.507 20.139C153.515 20.4371 153.519 21.0534 153.519 21.9879C153.519 22.9225 153.515 23.5388 153.507 23.8369C153.499 24.1349 153.487 24.4693 153.471 24.8399Z" fill="white"/>
<path d="M177.619 10C170.99 10 165.619 15.3707 165.619 22C165.619 28.6293 170.99 34 177.619 34C184.248 34 189.619 28.6293 189.619 22C189.619 15.3707 184.248 10 177.619 10ZM183.459 20.8427C183.267 20.8427 181.592 20.8107 180.046 19.696V24.5333C180.046 26.816 178.19 28.672 175.907 28.672C173.624 28.672 171.768 26.816 171.768 24.5333C171.768 22.2507 173.624 20.3947 175.907 20.3947H176.579V22.528H175.907C174.803 22.528 173.902 23.4293 173.902 24.5333C173.902 25.6373 174.803 26.5387 175.907 26.5387C177.011 26.5387 177.912 25.6373 177.912 24.5333V15.3333H180.046V15.4027C180.094 15.92 180.398 17.312 181.272 17.952C182.275 18.688 183.454 18.7093 183.464 18.7093H183.459V20.8427Z" fill="white"/>
<path d="M208.631 10C206.972 10 205.417 10.3142 203.967 10.9426C202.5 11.571 201.227 12.425 200.148 13.5045C199.068 14.5841 198.214 15.857 197.586 17.3233C196.941 18.7734 196.619 20.3283 196.619 21.9879C196.619 23.6475 196.941 25.2024 197.586 26.6526C198.214 28.1188 199.068 29.3958 200.148 30.4834C201.227 31.571 202.5 32.429 203.967 33.0574C205.417 33.6858 206.972 34 208.631 34C210.291 34 211.846 33.6858 213.296 33.0574C214.762 32.429 216.035 31.571 217.115 30.4834C218.194 29.3958 219.048 28.1188 219.677 26.6526C220.305 25.2024 220.619 23.6475 220.619 21.9879C220.619 20.3283 220.305 18.7734 219.677 17.3233C219.048 15.857 218.194 14.5841 217.115 13.5045C216.035 12.425 214.762 11.571 213.296 10.9426C211.846 10.3142 210.291 10 208.631 10ZM210.009 25.9758C209.461 25.9758 208.949 25.8469 208.474 25.5891C207.999 25.3313 207.673 25.0332 207.495 24.6949C207.495 24.6949 207.391 25.1098 207.181 25.9396C206.972 26.7694 206.835 27.2971 206.77 27.5227C206.545 28.3283 206.194 29.0735 205.719 29.7583C205.244 30.4431 204.974 30.8177 204.909 30.8822C204.877 30.9305 204.833 30.9466 204.776 30.9305C204.72 30.9144 204.684 30.8822 204.667 30.8338C204.667 30.721 204.623 30.2497 204.535 29.4199C204.446 28.5901 204.506 27.7563 204.716 26.9184C204.764 26.709 204.861 26.2981 205.006 25.6858C205.151 25.0735 205.3 24.4451 205.453 23.8006C205.606 23.1561 205.739 22.5841 205.852 22.0846C205.965 21.569 206.021 21.3112 206.021 21.3112C206.021 21.3112 205.969 21.1621 205.864 20.864C205.759 20.566 205.707 20.1752 205.707 19.6918C205.707 18.9345 205.9 18.3021 206.287 17.7946C206.674 17.287 207.141 17.0332 207.689 17.0332C208.156 17.0332 208.502 17.1863 208.728 17.4924C208.953 17.7986 209.066 18.1611 209.066 18.5801C209.066 19.0473 208.953 19.6073 208.728 20.2598C208.502 20.9124 208.317 21.569 208.172 22.2296C208.043 22.7613 208.144 23.2246 208.474 23.6193C208.804 24.0141 209.244 24.2115 209.791 24.2115C210.758 24.2115 211.544 23.6677 212.148 22.5801C212.752 21.4924 213.054 20.2075 213.054 18.7251C213.054 17.6133 212.684 16.6788 211.942 15.9214C211.201 15.1641 210.146 14.7855 208.776 14.7855C207.987 14.7855 207.286 14.9225 206.674 15.1964C206.045 15.4703 205.509 15.8328 205.066 16.284C204.623 16.7351 204.289 17.2588 204.063 17.855C203.822 18.4512 203.701 19.0715 203.701 19.716C203.701 20.1672 203.761 20.5539 203.882 20.8761C204.003 21.1984 204.168 21.4884 204.377 21.7462C204.474 21.8429 204.535 21.9275 204.559 22C204.583 22.0725 204.571 22.1732 204.522 22.3021C204.506 22.3988 204.474 22.5398 204.426 22.7251C204.377 22.9104 204.345 23.0433 204.329 23.1239C204.297 23.2528 204.232 23.3414 204.136 23.3897C204.039 23.4381 203.926 23.4381 203.797 23.3897C203.088 23.0997 202.561 22.5921 202.214 21.8671C201.868 21.142 201.695 20.3444 201.695 19.4743C201.695 18.7331 201.848 17.9839 202.154 17.2266C202.476 16.4693 202.943 15.7805 203.556 15.1601C204.168 14.5398 204.933 14.0282 205.852 13.6254C206.77 13.2387 207.834 13.0453 209.042 13.0453C210.025 13.0453 210.919 13.2064 211.725 13.5287C212.531 13.8671 213.215 14.3061 213.779 14.8459C214.343 15.3857 214.778 16.0101 215.084 16.719C215.407 17.428 215.568 18.1611 215.568 18.9184C215.568 19.9335 215.431 20.8681 215.157 21.7221C214.883 22.5921 214.504 23.3414 214.021 23.9698C213.538 24.5982 212.958 25.0896 212.281 25.4441C211.588 25.7986 210.831 25.9758 210.009 25.9758Z" fill="white"/>
<path d="M239.631 10C237.972 10 236.417 10.3142 234.967 10.9426C233.5 11.571 232.227 12.425 231.148 13.5045C230.068 14.5841 229.214 15.857 228.586 17.3233C227.941 18.7734 227.619 20.3283 227.619 21.9879C227.619 23.6475 227.941 25.2024 228.586 26.6526C229.214 28.1188 230.068 29.3958 231.148 30.4834C232.227 31.571 233.5 32.429 234.967 33.0574C236.417 33.6858 237.972 34 239.631 34C241.291 34 242.846 33.6858 244.296 33.0574C245.762 32.429 247.035 31.571 248.115 30.4834C249.194 29.3958 250.048 28.1188 250.677 26.6526C251.305 25.2024 251.619 23.6475 251.619 21.9879C251.619 20.3283 251.305 18.7734 250.677 17.3233C250.048 15.857 249.194 14.5841 248.115 13.5045C247.035 12.425 245.762 11.571 244.296 10.9426C242.846 10.3142 241.291 10 239.631 10ZM244.248 27.6918C244.151 27.6918 244.066 27.6757 243.994 27.6435C243.921 27.6113 243.837 27.571 243.74 27.5227C242.87 26.9909 241.907 26.5881 240.852 26.3142C239.796 26.0403 238.689 25.9033 237.529 25.9033C236.884 25.9033 236.244 25.9436 235.607 26.0242C234.971 26.1047 234.354 26.2014 233.758 26.3142C233.645 26.3464 233.537 26.3746 233.432 26.3988C233.327 26.423 233.234 26.435 233.154 26.435C232.928 26.435 232.747 26.3585 232.61 26.2054C232.473 26.0524 232.405 25.8792 232.405 25.6858C232.405 25.428 232.465 25.2346 232.586 25.1057C232.707 24.9768 232.864 24.8963 233.057 24.864C233.798 24.6868 234.54 24.5539 235.281 24.4653C236.022 24.3766 236.771 24.3323 237.529 24.3323C238.85 24.3323 240.094 24.4814 241.263 24.7795C242.431 25.0775 243.514 25.5327 244.513 26.145C244.675 26.2256 244.795 26.3223 244.876 26.435C244.957 26.5478 244.997 26.717 244.997 26.9426C244.997 27.1521 244.92 27.3293 244.767 27.4743C244.614 27.6193 244.441 27.6918 244.248 27.6918ZM245.553 24.5015C245.424 24.5015 245.315 24.4814 245.226 24.4411C245.138 24.4008 245.045 24.3565 244.948 24.3082C244.465 24.0181 243.933 23.7523 243.353 23.5106C242.773 23.2689 242.161 23.0675 241.516 22.9063C240.872 22.7452 240.203 22.6163 239.51 22.5196C238.801 22.423 238.076 22.3746 237.335 22.3746C236.578 22.3746 235.873 22.423 235.22 22.5196C234.568 22.6163 233.968 22.7372 233.42 22.8822C233.307 22.9144 233.21 22.9426 233.13 22.9668C233.049 22.9909 232.952 23.003 232.84 23.003C232.582 23.003 232.36 22.9144 232.175 22.7372C231.99 22.5599 231.897 22.3424 231.897 22.0846C231.897 21.8268 231.958 21.6093 232.078 21.432C232.199 21.2548 232.389 21.1339 232.646 21.0695C233.323 20.8922 234.028 20.7392 234.761 20.6103C235.494 20.4814 236.368 20.4169 237.383 20.4169C238.157 20.4169 238.93 20.4653 239.704 20.5619C240.477 20.6586 241.226 20.7996 241.951 20.9849C242.677 21.1702 243.369 21.3998 244.03 21.6737C244.707 21.9476 245.343 22.2618 245.939 22.6163C246.149 22.7452 246.294 22.8822 246.374 23.0272C246.455 23.1722 246.495 23.3575 246.495 23.5831C246.495 23.8409 246.403 24.0584 246.217 24.2356C246.032 24.4129 245.81 24.5015 245.553 24.5015ZM247.051 20.8278C246.922 20.8278 246.814 20.8117 246.725 20.7795C246.636 20.7472 246.536 20.6989 246.423 20.6344C245.875 20.3122 245.263 20.0222 244.586 19.7644C243.909 19.5227 243.192 19.3132 242.435 19.136C241.678 18.9587 240.888 18.8298 240.066 18.7492C239.261 18.6526 238.447 18.6042 237.625 18.6042C236.803 18.6042 235.99 18.6526 235.184 18.7492C234.378 18.8459 233.597 18.9909 232.84 19.1843C232.743 19.2165 232.642 19.2487 232.538 19.281C232.433 19.3132 232.324 19.3293 232.211 19.3293C231.889 19.3293 231.619 19.2165 231.402 18.9909C231.184 18.7654 231.075 18.4914 231.075 18.1692C231.075 17.8469 231.164 17.5932 231.341 17.4079C231.518 17.2226 231.712 17.0977 231.921 17.0332C232.775 16.7754 233.678 16.5861 234.628 16.4653C235.579 16.3444 236.578 16.284 237.625 16.284C238.495 16.284 239.381 16.3323 240.284 16.429C241.17 16.5257 242.04 16.6667 242.894 16.852C243.748 17.0373 244.57 17.2749 245.359 17.565C246.149 17.855 246.882 18.2014 247.559 18.6042C247.736 18.7009 247.885 18.8338 248.006 19.003C248.127 19.1722 248.187 19.4018 248.187 19.6918C248.187 20.0141 248.074 20.284 247.849 20.5015C247.623 20.719 247.357 20.8278 247.051 20.8278Z" fill="white"/>
</svg>
