<svg width="34" height="18" viewBox="0 0 34 18" fill="none" xmlns="http://www.w3.org/2000/svg">
<path d="M25.3333 0.666687H3.66665C2.78259 0.666687 1.93474 1.01788 1.30962 1.643C0.684502 2.26812 0.333313 3.11597 0.333313 4.00002V14C0.333313 14.8841 0.684502 15.7319 1.30962 16.357C1.93474 16.9822 2.78259 17.3334 3.66665 17.3334H25.3333C26.2174 17.3334 27.0652 16.9822 27.6903 16.357C28.3155 15.7319 28.6666 14.8841 28.6666 14V4.00002C28.6666 3.11597 28.3155 2.26812 27.6903 1.643C27.0652 1.01788 26.2174 0.666687 25.3333 0.666687ZM25.3333 14H3.66665V4.00002H25.3333V14ZM32 5.66669C31.558 5.66669 31.134 5.84228 30.8215 6.15484C30.5089 6.4674 30.3333 6.89133 30.3333 7.33335V10.6667C30.3333 11.1087 30.5089 11.5326 30.8215 11.8452C31.134 12.1578 31.558 12.3334 32 12.3334C32.442 12.3334 32.8659 12.1578 33.1785 11.8452C33.4911 11.5326 33.6666 11.1087 33.6666 10.6667V7.33335C33.6666 6.89133 33.4911 6.4674 33.1785 6.15484C32.8659 5.84228 32.442 5.66669 32 5.66669Z" fill="white"/>
</svg>
