<svg width="26" height="28" viewBox="0 0 26 28" fill="none" xmlns="http://www.w3.org/2000/svg">
<path d="M25.5067 5.68001C25.4611 5.50976 25.3823 5.35021 25.2748 5.21061C25.1672 5.071 25.033 4.95411 24.88 4.86668L17.9467 0.86668C17.7953 0.77797 17.6279 0.720011 17.4541 0.696127C17.2802 0.672242 17.1034 0.682902 16.9337 0.727495C16.764 0.772087 16.6048 0.849736 16.4651 0.955988C16.3255 1.06224 16.2082 1.19501 16.12 1.34668L13 6.76001L9.88 1.34668C9.79179 1.19501 9.6745 1.06224 9.53487 0.955988C9.39524 0.849736 9.23601 0.772087 9.06631 0.727495C8.89661 0.682902 8.71978 0.672242 8.54595 0.696127C8.37212 0.720011 8.20472 0.77797 8.05334 0.86668L1.12 4.86668C0.966979 4.95411 0.832805 5.071 0.725241 5.21061C0.617676 5.35021 0.538855 5.50976 0.493336 5.68001C0.405092 6.01794 0.452967 6.37701 0.62667 6.68001L5.96 15.7867C5.365 16.8767 5.03606 18.092 5 19.3333C4.99683 20.5444 5.26865 21.7404 5.79496 22.8311C6.32127 23.9218 7.08835 24.8787 8.03834 25.6298C8.98834 26.3809 10.0965 26.9065 11.2792 27.167C12.4619 27.4275 13.6883 27.4161 14.8659 27.1337C16.0436 26.8512 17.1417 26.305 18.0776 25.5364C19.0134 24.7677 19.7625 23.7966 20.2685 22.6963C20.7744 21.596 21.0239 20.3952 20.9982 19.1844C20.9725 17.9737 20.6722 16.7845 20.12 15.7067L25.32 6.69335C25.4168 6.54527 25.4831 6.37941 25.5152 6.20544C25.5472 6.03147 25.5443 5.85286 25.5067 5.68001ZM3.66667 6.50668L8.28 3.84001L12.5733 11.3333C10.7432 11.4464 9.00905 12.191 7.66667 13.44L3.66667 6.50668ZM13 24.6667C11.5855 24.6667 10.229 24.1048 9.22877 23.1046C8.22857 22.1044 7.66667 20.7478 7.66667 19.3333C7.66667 17.9189 8.22857 16.5623 9.22877 15.5621C10.229 14.5619 11.5855 14 13 14C14.4145 14 15.771 14.5619 16.7712 15.5621C17.7714 16.5623 18.3333 17.9189 18.3333 19.3333C18.3333 20.7478 17.7714 22.1044 16.7712 23.1046C15.771 24.1048 14.4145 24.6667 13 24.6667ZM18.3333 13.4C17.6094 12.7388 16.7683 12.2188 15.8533 11.8667L14.5467 9.42668L17.7733 3.84001L22.3867 6.50668L18.3333 13.4Z" fill="white"/>
</svg>
